<svg xmlns="http://www.w3.org/2000/svg" xmlns:svg="http://www.w3.org/2000/svg" id="svg38" width="160" height="160" version="1.1" viewBox="0 0 1666.667 1666.837" xml:space="preserve" style="clip-rule:evenodd;fill-rule:evenodd;image-rendering:optimizeQuality;shape-rendering:geometricPrecision;text-rendering:geometricPrecision"><metadata id="metadata42"/><g id="g4573" transform="translate(-686.25631,82.403259)"><polygon id="polygon7" points="1524 293 1524 -5 815 404 1073 553" class="fil0" transform="translate(0,-69.453818)" style="fill:#424b53;fill-rule:nonzero"/><polygon id="polygon9" points="1524 814 1726 697 1524 581 1323 697" class="fil0" transform="translate(0,-69.453818)" style="fill:#424b53;fill-rule:nonzero"/><polygon id="polygon11" points="1524 814 1524 1047 1726 930 1726 697" class="fil1" transform="translate(0,-69.453818)" style="fill:#bfd43f;fill-rule:nonzero"/><polygon id="polygon13" points="2234 404 1976 553 1976 1074 1524 1335 1524 1632 2234 1223" class="fil1" transform="translate(0,-69.453818)" style="fill:#bfd43f;fill-rule:nonzero"/><polygon id="polygon15" points="1524 1047 1524 814 1323 697 1323 930" class="fil2" transform="translate(0,-69.453818)" style="fill:#969c98;fill-rule:nonzero"/><polygon id="polygon17" points="1073 1074 1073 553 815 404 815 1223 1524 1632 1524 1335" class="fil2" transform="translate(0,-69.453818)" style="fill:#969c98;fill-rule:nonzero"/></g></svg>